<svg width="179" height="190" viewBox="0 0 179 190" fill="none" xmlns="http://www.w3.org/2000/svg">
<circle cx="122.983" cy="95.1531" r="56" transform="rotate(90 122.983 95.1531)" fill="url(#paint0_radial_242_2757)"/>
<circle cx="66.9825" cy="67.1531" r="56" transform="rotate(90 66.9825 67.1531)" fill="url(#paint1_radial_242_2757)"/>
<circle cx="66.9825" cy="123.153" r="56" transform="rotate(90 66.9825 123.153)" fill="url(#paint2_radial_242_2757)"/>
<circle cx="122.983" cy="95.1531" r="56" transform="rotate(90 122.983 95.1531)" fill="url(#paint3_radial_242_2757)"/>
<circle cx="66.9825" cy="67.1531" r="56" transform="rotate(90 66.9825 67.1531)" fill="url(#paint4_radial_242_2757)"/>
<circle cx="66.9825" cy="123.153" r="56" transform="rotate(90 66.9825 123.153)" fill="url(#paint5_radial_242_2757)"/>
<circle cx="119.231" cy="81.1532" r="56" transform="rotate(60 119.231 81.1532)" fill="url(#paint6_radial_242_2757)"/>
<circle cx="56.7338" cy="84.9044" r="56" transform="rotate(60 56.7338 84.9044)" fill="url(#paint7_radial_242_2757)"/>
<circle cx="84.7338" cy="133.402" r="56" transform="rotate(60 84.7338 133.402)" fill="url(#paint8_radial_242_2757)"/>
<circle cx="108.983" cy="119.402" r="56" transform="rotate(150 108.983 119.402)" fill="url(#paint9_radial_242_2757)"/>
<circle cx="105.231" cy="56.9044" r="56" transform="rotate(150 105.231 56.9044)" fill="url(#paint10_radial_242_2757)"/>
<circle cx="56.7338" cy="84.9044" r="56" transform="rotate(150 56.7338 84.9044)" fill="url(#paint11_radial_242_2757)"/>
<circle cx="119.152" cy="109.289" r="56" transform="rotate(120.321 119.152 109.289)" fill="url(#paint12_radial_242_2757)"/>
<circle cx="84.9485" cy="56.8476" r="56" transform="rotate(120.321 84.9485 56.8476)" fill="url(#paint13_radial_242_2757)"/>
<circle cx="56.677" cy="105.187" r="56" transform="rotate(120.321 56.677 105.187)" fill="url(#paint14_radial_242_2757)"/>
<rect x="16" y="22" width="144" height="144" rx="72" fill="white" fill-opacity="0.4"/>
<rect x="17" y="23" width="142" height="142" rx="71" stroke="#EB8908" stroke-opacity="0.8" stroke-width="2"/>
<circle cx="88" cy="94" r="56" fill="white" fill-opacity="0.85"/>
<path d="M108.574 97.5634C108.906 96.5099 108.321 95.3869 107.267 95.0552C106.214 94.7235 105.091 95.3087 104.759 96.3623L108.574 97.5634ZM71.2411 96.3623C70.9094 95.3087 69.7864 94.7235 68.7328 95.0552C67.6792 95.3869 67.094 96.5099 67.4257 97.5634L71.2411 96.3623ZM86 120.667C86 121.771 86.8955 122.667 88 122.667C89.1046 122.667 90 121.771 90 120.667H86ZM95.3334 77.7036V89.5555H99.3334V77.7036H95.3334ZM80.6667 89.5555V77.7036H76.6667V89.5555H80.6667ZM88 97.9258C84.143 97.9258 80.6667 94.3817 80.6667 89.5555H76.6667C76.6667 96.184 81.5478 101.926 88 101.926V97.9258ZM95.3334 89.5555C95.3334 94.3817 91.8571 97.9258 88 97.9258V101.926C94.4523 101.926 99.3334 96.184 99.3334 89.5555H95.3334ZM88 69.3333C91.8571 69.3333 95.3334 72.8774 95.3334 77.7036H99.3334C99.3334 71.0751 94.4523 65.3333 88 65.3333V69.3333ZM88 65.3333C81.5478 65.3333 76.6667 71.0751 76.6667 77.7036H80.6667C80.6667 72.8774 84.143 69.3333 88 69.3333V65.3333ZM104.759 96.3623C102.256 104.312 95.5959 109.778 88 109.778V113.778C97.6401 113.778 105.643 106.876 108.574 97.5634L104.759 96.3623ZM88 109.778C80.4042 109.778 73.7436 104.312 71.2411 96.3623L67.4257 97.5634C70.3574 106.876 78.36 113.778 88 113.778V109.778ZM86 111.778V120.667H90V111.778H86Z" fill="#E56306"/>
<defs>
<radialGradient id="paint0_radial_242_2757" cx="0" cy="0" r="1" gradientUnits="userSpaceOnUse" gradientTransform="translate(122.983 95.1531) rotate(90) scale(56)">
<stop stop-color="#EB8908"/>
<stop offset="1" stop-color="#EB8908" stop-opacity="0"/>
</radialGradient>
<radialGradient id="paint1_radial_242_2757" cx="0" cy="0" r="1" gradientUnits="userSpaceOnUse" gradientTransform="translate(66.9825 67.1531) rotate(90) scale(56)">
<stop stop-color="#FFD035"/>
<stop offset="1" stop-color="#FFD035" stop-opacity="0"/>
</radialGradient>
<radialGradient id="paint2_radial_242_2757" cx="0" cy="0" r="1" gradientUnits="userSpaceOnUse" gradientTransform="translate(66.9825 123.153) rotate(90) scale(56)">
<stop stop-color="#E56306"/>
<stop offset="1" stop-color="#E56306" stop-opacity="0"/>
</radialGradient>
<radialGradient id="paint3_radial_242_2757" cx="0" cy="0" r="1" gradientUnits="userSpaceOnUse" gradientTransform="translate(122.983 95.1531) rotate(90) scale(56)">
<stop stop-color="#EB8908"/>
<stop offset="1" stop-color="#EB8908" stop-opacity="0"/>
</radialGradient>
<radialGradient id="paint4_radial_242_2757" cx="0" cy="0" r="1" gradientUnits="userSpaceOnUse" gradientTransform="translate(66.9825 67.1531) rotate(90) scale(56)">
<stop stop-color="#FFD035"/>
<stop offset="1" stop-color="#FFD035" stop-opacity="0"/>
</radialGradient>
<radialGradient id="paint5_radial_242_2757" cx="0" cy="0" r="1" gradientUnits="userSpaceOnUse" gradientTransform="translate(66.9825 123.153) rotate(90) scale(56)">
<stop stop-color="#E56306"/>
<stop offset="1" stop-color="#E56306" stop-opacity="0"/>
</radialGradient>
<radialGradient id="paint6_radial_242_2757" cx="0" cy="0" r="1" gradientUnits="userSpaceOnUse" gradientTransform="translate(119.231 81.1532) rotate(90) scale(56)">
<stop stop-color="#EB8908"/>
<stop offset="1" stop-color="#EB8908" stop-opacity="0"/>
</radialGradient>
<radialGradient id="paint7_radial_242_2757" cx="0" cy="0" r="1" gradientUnits="userSpaceOnUse" gradientTransform="translate(56.7338 84.9044) rotate(90) scale(56)">
<stop stop-color="#FFD035"/>
<stop offset="1" stop-color="#FFD035" stop-opacity="0"/>
</radialGradient>
<radialGradient id="paint8_radial_242_2757" cx="0" cy="0" r="1" gradientUnits="userSpaceOnUse" gradientTransform="translate(84.7338 133.402) rotate(90) scale(56)">
<stop stop-color="#E56306"/>
<stop offset="1" stop-color="#E56306" stop-opacity="0"/>
</radialGradient>
<radialGradient id="paint9_radial_242_2757" cx="0" cy="0" r="1" gradientUnits="userSpaceOnUse" gradientTransform="translate(108.983 119.402) rotate(90) scale(56)">
<stop stop-color="#EB8908"/>
<stop offset="1" stop-color="#EB8908" stop-opacity="0"/>
</radialGradient>
<radialGradient id="paint10_radial_242_2757" cx="0" cy="0" r="1" gradientUnits="userSpaceOnUse" gradientTransform="translate(105.231 56.9044) rotate(90) scale(56)">
<stop stop-color="#FFD035"/>
<stop offset="1" stop-color="#FFD035" stop-opacity="0"/>
</radialGradient>
<radialGradient id="paint11_radial_242_2757" cx="0" cy="0" r="1" gradientUnits="userSpaceOnUse" gradientTransform="translate(56.7338 84.9044) rotate(90) scale(56)">
<stop stop-color="#E56306"/>
<stop offset="1" stop-color="#E56306" stop-opacity="0"/>
</radialGradient>
<radialGradient id="paint12_radial_242_2757" cx="0" cy="0" r="1" gradientUnits="userSpaceOnUse" gradientTransform="translate(119.152 109.289) rotate(90) scale(56)">
<stop stop-color="#EB8908"/>
<stop offset="1" stop-color="#EB8908" stop-opacity="0"/>
</radialGradient>
<radialGradient id="paint13_radial_242_2757" cx="0" cy="0" r="1" gradientUnits="userSpaceOnUse" gradientTransform="translate(84.9485 56.8476) rotate(90) scale(56)">
<stop stop-color="#FFD035"/>
<stop offset="1" stop-color="#FFD035" stop-opacity="0"/>
</radialGradient>
<radialGradient id="paint14_radial_242_2757" cx="0" cy="0" r="1" gradientUnits="userSpaceOnUse" gradientTransform="translate(56.677 105.187) rotate(90) scale(56)">
<stop stop-color="#E56306"/>
<stop offset="1" stop-color="#E56306" stop-opacity="0"/>
</radialGradient>
</defs>
</svg>
